<?xml version="1.0" standalone="no"?>
<!DOCTYPE svg PUBLIC "-//W3C//DTD SVG 20010904//EN"
 "http://www.w3.org/TR/2001/REC-SVG-20010904/DTD/svg10.dtd">
<svg version="1.0" xmlns="http://www.w3.org/2000/svg"
 width="281.000000pt" height="179.000000pt" viewBox="0 0 281.000000 179.000000"
 preserveAspectRatio="xMidYMid meet">

<g transform="translate(0.000000,179.000000) scale(0.100000,-0.100000)"
fill="#000000" stroke="none">
<path d="M1737 1235 c3 -69 3 -125 -2 -125 -4 0 -22 13 -40 29 -96 84 -250 24
-291 -115 -44 -152 52 -294 199 -294 32 0 97 31 118 56 13 16 14 15 19 -12 5
-26 9 -29 50 -32 l45 -3 1 311 2 310 -54 0 -53 0 6 -125z m-69 -159 c39 -21
62 -66 62 -121 0 -142 -161 -188 -225 -65 -58 112 58 245 163 186z"/>
<path d="M419 1142 c-41 -31 -96 -68 -122 -82 -43 -23 -47 -28 -47 -62 0 -34
4 -39 55 -68 30 -17 86 -56 124 -86 l70 -55 17 33 17 32 -44 38 c-23 20 -69
52 -101 70 -31 18 -58 35 -58 38 0 3 23 16 52 30 28 13 73 45 101 70 47 43 48
46 36 73 -7 15 -15 27 -19 27 -3 0 -40 -26 -81 -58z"/>
<path d="M2346 1171 c-16 -29 -15 -30 33 -73 27 -25 72 -55 100 -69 28 -13 51
-26 51 -29 0 -3 -29 -22 -64 -43 -35 -21 -81 -53 -102 -71 l-38 -33 20 -31 20
-32 48 40 c26 22 81 61 122 86 70 44 74 48 74 83 0 33 -4 38 -47 61 -26 14
-77 48 -113 75 -91 71 -87 70 -104 36z"/>
<path d="M695 1163 c-88 -46 -130 -123 -123 -226 5 -77 36 -132 100 -174 35
-24 52 -28 107 -27 81 0 111 15 111 52 0 43 -12 54 -44 42 -56 -21 -96 -13
-137 29 -35 35 -39 44 -39 91 0 59 20 100 60 124 31 18 86 21 124 6 23 -8 26
-6 36 26 14 40 10 46 -39 63 -48 16 -120 13 -156 -6z"/>
<path d="M1088 1170 c-89 -27 -146 -101 -155 -200 -11 -114 69 -220 176 -235
93 -13 179 32 222 116 25 50 25 149 0 205 -40 89 -152 141 -243 114z m140
-125 c28 -30 32 -42 32 -87 0 -85 -46 -137 -122 -138 -70 0 -127 78 -115 157
18 109 132 147 205 68z"/>
<path d="M2025 1166 c-41 -18 -100 -85 -115 -131 -20 -61 -9 -165 23 -213 64
-98 235 -120 327 -43 32 27 33 27 16 58 l-16 32 -42 -24 c-58 -31 -101 -39
-143 -25 -31 10 -85 60 -85 79 0 5 63 14 140 21 93 8 144 17 151 26 19 24 5
109 -26 153 -48 70 -153 101 -230 67z m108 -77 c28 -15 56 -49 57 -70 0 -18
-20 -23 -127 -35 -73 -8 -85 4 -59 55 27 51 84 73 129 50z"/>
</g>
</svg>
